<svg width="767" height="183" viewBox="0 0 767 183" fill="none" xmlns="http://www.w3.org/2000/svg">
<path d="M310.07 142.476V24H326.113V142.476H310.07Z" fill="#0C0C0C"/>
<path d="M362.946 142.476V127.794H395.885C404.647 127.794 412.327 125.916 418.926 122.161C425.525 118.291 430.645 112.999 434.286 106.284C438.041 99.5694 439.918 91.8304 439.918 83.067C439.918 74.4175 438.041 66.7354 434.286 60.0207C430.532 53.3059 425.355 48.0707 418.755 44.315C412.156 40.5593 404.533 38.6814 395.885 38.6814H363.117V24H396.227C404.874 24 412.839 25.4795 420.121 28.4386C427.516 31.3976 433.888 35.5516 439.236 40.9007C444.697 46.2497 448.907 52.5092 451.865 59.6792C454.937 66.8492 456.473 74.7021 456.473 83.2378C456.473 91.6596 454.937 99.5125 451.865 106.796C448.907 113.966 444.754 120.226 439.406 125.575C434.059 130.924 427.687 135.078 420.291 138.037C413.009 140.996 405.102 142.476 396.568 142.476H362.946ZM352.365 142.476V24H368.408V142.476H352.365Z" fill="#0C0C0C"/>
<path d="M472.434 142.476V61.3864H487.794V142.476H472.434ZM480.114 45.1685C477.269 45.1685 474.937 44.2581 473.116 42.4371C471.296 40.5023 470.386 38.1124 470.386 35.2671C470.386 32.5357 471.296 30.2595 473.116 28.4386C474.937 26.5038 477.269 25.5364 480.114 25.5364C482.958 25.5364 485.291 26.5038 487.111 28.4386C488.932 30.2595 489.842 32.5357 489.842 35.2671C489.842 38.1124 488.932 40.5023 487.111 42.4371C485.291 44.2581 482.958 45.1685 480.114 45.1685Z" fill="#0C0C0C"/>
<path d="M542.346 178.155C534.04 178.155 526.644 176.618 520.159 173.545C513.787 170.473 508.667 166.148 504.798 160.571L514.697 150.499C517.997 154.71 521.922 157.897 526.474 160.059C531.025 162.335 536.429 163.473 542.687 163.473C550.993 163.473 557.536 161.254 562.314 156.815C567.207 152.491 569.653 146.63 569.653 139.232V119.088L572.384 100.821L569.653 82.7256V61.3864H585.013V139.232C585.013 146.971 583.193 153.743 579.552 159.547C576.025 165.351 571.019 169.904 564.533 173.204C558.161 176.505 550.766 178.155 542.346 178.155ZM542.346 141.11C534.95 141.11 528.294 139.346 522.377 135.818C516.575 132.29 511.967 127.453 508.553 121.307C505.14 115.047 503.433 108.048 503.433 100.309C503.433 92.5701 505.14 85.6847 508.553 79.6528C511.967 73.5071 516.575 68.6702 522.377 65.1421C528.294 61.5002 534.95 59.6792 542.346 59.6792C548.718 59.6792 554.35 60.9311 559.242 63.4349C564.135 65.9387 568.003 69.4668 570.848 74.0192C573.806 78.4578 575.399 83.693 575.627 89.7249V111.235C575.285 117.153 573.635 122.388 570.677 126.941C567.833 131.379 563.964 134.85 559.072 137.354C554.179 139.858 548.604 141.11 542.346 141.11ZM545.418 126.599C550.424 126.599 554.805 125.518 558.56 123.356C562.428 121.193 565.386 118.177 567.434 114.308C569.482 110.324 570.507 105.715 570.507 100.48C570.507 95.2446 569.426 90.6923 567.264 86.8227C565.216 82.8394 562.314 79.7666 558.56 77.6042C554.805 75.328 550.367 74.1899 545.247 74.1899C540.127 74.1899 535.633 75.328 531.764 77.6042C527.896 79.7666 524.824 82.8394 522.548 86.8227C520.386 90.6923 519.305 95.1877 519.305 100.309C519.305 105.431 520.386 109.983 522.548 113.966C524.824 117.95 527.896 121.079 531.764 123.356C535.747 125.518 540.298 126.599 545.418 126.599Z" fill="#0C0C0C"/>
<path d="M643.4 144.183C635.322 144.183 628.04 142.362 621.554 138.72C615.069 134.964 609.949 129.9 606.194 123.526C602.439 117.153 600.562 109.926 600.562 101.846C600.562 93.8789 602.382 86.7089 606.023 80.3356C609.778 73.9623 614.784 68.9547 621.042 65.3128C627.414 61.5571 634.525 59.6792 642.376 59.6792C649.886 59.6792 656.485 61.3864 662.174 64.8006C667.977 68.2149 672.471 72.938 675.657 78.9699C678.956 85.0018 680.606 91.8304 680.606 99.4556C680.606 100.594 680.549 101.846 680.436 103.211C680.322 104.463 680.094 105.943 679.753 107.65H611.314V94.8463H671.561L665.929 99.797C665.929 94.3342 664.961 89.7249 663.027 85.9692C661.093 82.0997 658.362 79.1406 654.835 77.092C651.308 74.9297 647.041 73.8485 642.035 73.8485C636.801 73.8485 632.193 74.9866 628.21 77.2628C624.228 79.539 621.156 82.7256 618.994 86.8227C616.832 90.9199 615.751 95.7568 615.751 101.333C615.751 107.024 616.889 112.032 619.165 116.356C621.44 120.567 624.683 123.868 628.893 126.258C633.103 128.534 637.939 129.672 643.4 129.672C647.951 129.672 652.104 128.875 655.859 127.282C659.728 125.689 663.027 123.299 665.758 120.112L675.657 130.184C671.788 134.736 667.009 138.208 661.32 140.598C655.745 142.988 649.772 144.183 643.4 144.183Z" fill="#0C0C0C"/>
<path d="M748.397 142.476L723.138 106.967L720.236 104.236L688.321 61.3864H706.924L729.965 92.9685L732.866 95.3584L767 142.476H748.397ZM686.785 142.476L720.236 97.407L728.94 108.674L704.876 142.476H686.785ZM734.061 104.065L725.186 93.1392L747.544 61.3864H765.464L734.061 104.065Z" fill="#0C0C0C"/>
<path d="M183 0H243.999V61H183V0Z" fill="url(#paint0_linear_4109_2033)"/>
<path d="M122 122H61.0004V183H122H183V122V61L183 61H122V122Z" fill="url(#paint1_linear_4109_2033)"/>
<path d="M60.9999 0H0V61L0 122H60.9999V61H122V0H61.0004H60.9999Z" fill="url(#paint2_linear_4109_2033)"/>
<defs>
<linearGradient id="paint0_linear_4109_2033" x1="1.09078e-05" y1="183" x2="244" y2="-3.43664e-06" gradientUnits="userSpaceOnUse">
<stop stop-color="#5878E7"/>
<stop offset="1" stop-color="#314381"/>
</linearGradient>
<linearGradient id="paint1_linear_4109_2033" x1="1.09078e-05" y1="183" x2="244" y2="-3.43664e-06" gradientUnits="userSpaceOnUse">
<stop stop-color="#5878E7"/>
<stop offset="1" stop-color="#314381"/>
</linearGradient>
<linearGradient id="paint2_linear_4109_2033" x1="1.09078e-05" y1="183" x2="244" y2="-3.43664e-06" gradientUnits="userSpaceOnUse">
<stop stop-color="#5878E7"/>
<stop offset="1" stop-color="#314381"/>
</linearGradient>
</defs>
</svg>
