<svg width="2000" height="478" viewBox="0 0 2000 478" fill="none" xmlns="http://www.w3.org/2000/svg">
<path d="M808.527 384.731V75.7997H850.36V384.731H808.527Z" fill="#F9F9F9"/>
<path d="M946.404 384.731V346.449H1032.3C1055.14 346.449 1075.17 341.552 1092.38 331.759C1109.58 321.669 1122.93 307.869 1132.43 290.36C1142.22 272.851 1147.11 252.671 1147.11 229.82C1147.11 207.266 1142.22 187.235 1132.43 169.726C1122.64 152.216 1109.14 138.565 1091.93 128.772C1074.72 118.979 1054.84 114.082 1032.3 114.082H946.849V75.7997H1033.19C1055.73 75.7997 1076.5 79.6576 1095.49 87.3735C1114.78 95.0893 1131.39 105.921 1145.33 119.869C1159.58 133.817 1170.55 150.139 1178.27 168.835C1186.28 187.531 1190.28 208.008 1190.28 230.265C1190.28 252.226 1186.28 272.703 1178.27 291.696C1170.55 310.392 1159.72 326.714 1145.78 340.662C1131.83 354.61 1115.22 365.442 1095.94 373.157C1076.95 380.873 1056.33 384.731 1034.08 384.731H946.404ZM918.812 384.731V75.7997H960.645V384.731H918.812Z" fill="#F9F9F9"/>
<path d="M1237.12 384.731V173.287H1277.17V384.731H1237.12ZM1257.14 130.998C1249.72 130.998 1243.64 128.624 1238.9 123.875C1234.15 118.83 1231.77 112.598 1231.77 105.179C1231.77 98.057 1234.15 92.1217 1238.9 87.3735C1243.64 82.3285 1249.72 79.806 1257.14 79.806C1264.56 79.806 1270.64 82.3285 1275.39 87.3735C1280.14 92.1217 1282.51 98.057 1282.51 105.179C1282.51 112.598 1280.14 118.83 1275.39 123.875C1270.64 128.624 1264.56 130.998 1257.14 130.998Z" fill="#F9F9F9"/>
<path d="M1419.42 477.767C1397.76 477.767 1378.47 473.76 1361.56 465.748C1344.95 457.735 1331.6 446.458 1321.51 431.917L1347.32 405.653C1355.92 416.633 1366.16 424.943 1378.03 430.581C1389.89 436.517 1403.99 439.484 1420.31 439.484C1441.96 439.484 1459.02 433.697 1471.48 422.124C1484.24 410.846 1490.62 395.563 1490.62 376.273V323.746L1497.74 276.116L1490.62 228.93V173.287H1530.67V376.273C1530.67 396.453 1525.93 414.111 1516.43 429.246C1507.24 444.381 1494.18 456.251 1477.27 464.858C1460.66 473.464 1441.37 477.767 1419.42 477.767ZM1419.42 381.17C1400.13 381.17 1382.77 376.57 1367.35 367.371C1352.22 358.171 1340.2 345.558 1331.3 329.533C1322.4 313.211 1317.95 294.96 1317.95 274.78C1317.95 254.6 1322.4 236.646 1331.3 220.917C1340.2 204.892 1352.22 192.28 1367.35 183.08C1382.77 173.583 1400.13 168.835 1419.42 168.835C1436.03 168.835 1450.72 172.1 1463.47 178.628C1476.23 185.157 1486.32 194.357 1493.74 206.228C1501.45 217.801 1505.6 231.453 1506.2 247.181V303.269C1505.31 318.701 1501 332.352 1493.29 344.223C1485.87 355.797 1475.79 364.848 1463.03 371.377C1450.27 377.906 1435.73 381.17 1419.42 381.17ZM1427.43 343.333C1440.48 343.333 1451.9 340.513 1461.69 334.875C1471.78 329.236 1479.49 321.372 1484.84 311.282C1490.18 300.895 1492.85 288.876 1492.85 275.225C1492.85 261.574 1490.03 249.704 1484.39 239.614C1479.05 229.227 1471.48 221.214 1461.69 215.576C1451.9 209.64 1440.33 206.673 1426.98 206.673C1413.63 206.673 1401.91 209.64 1391.82 215.576C1381.74 221.214 1373.73 229.227 1367.79 239.614C1362.15 249.704 1359.34 261.426 1359.34 274.78C1359.34 288.134 1362.15 300.005 1367.79 310.392C1373.73 320.779 1381.74 328.94 1391.82 334.875C1402.21 340.513 1414.07 343.333 1427.43 343.333Z" fill="#F9F9F9"/>
<path d="M1682.92 389.183C1661.86 389.183 1642.87 384.434 1625.96 374.938C1609.04 365.145 1595.69 351.939 1585.9 335.32C1576.11 318.701 1571.22 299.857 1571.22 278.786C1571.22 258.013 1575.96 239.317 1585.46 222.698C1595.25 206.079 1608.3 193.022 1624.62 183.525C1641.24 173.732 1659.78 168.835 1680.25 168.835C1699.83 168.835 1717.04 173.287 1731.87 182.19C1747 191.093 1758.72 203.408 1767.03 219.137C1775.64 234.865 1779.94 252.671 1779.94 272.554C1779.94 275.522 1779.79 278.786 1779.49 282.348C1779.2 285.612 1778.6 289.47 1777.71 293.921H1599.25V260.535H1756.35L1741.66 273.445C1741.66 259.2 1739.14 247.181 1734.1 237.388C1729.06 227.298 1721.93 219.582 1712.74 214.24C1703.54 208.602 1692.41 205.782 1679.36 205.782C1665.71 205.782 1653.7 208.75 1643.31 214.685C1632.93 220.621 1624.92 228.93 1619.28 239.614C1613.64 250.297 1610.82 262.91 1610.82 277.451C1610.82 292.289 1613.79 305.347 1619.73 316.624C1625.66 327.604 1634.11 336.21 1645.09 342.442C1656.07 348.378 1668.68 351.345 1682.92 351.345C1694.79 351.345 1705.62 349.268 1715.41 345.113C1725.49 340.959 1734.1 334.726 1741.22 326.417L1767.03 352.681C1756.94 364.551 1744.48 373.603 1729.65 379.835C1715.11 386.067 1699.53 389.183 1682.92 389.183Z" fill="#F9F9F9"/>
<path d="M1951.49 384.731L1885.63 292.141L1878.06 285.018L1794.84 173.287H1843.35L1903.43 255.639L1910.99 261.871L2000 384.731H1951.49ZM1790.83 384.731L1878.06 267.213L1900.76 296.592L1838.01 384.731H1790.83ZM1914.11 284.573L1890.97 256.084L1949.27 173.287H1995.99L1914.11 284.573Z" fill="#F9F9F9"/>
<path d="M606.396 151.599H454.799V454.797H151.601V303.198H303.199V151.599H454.797V0H606.396V151.599ZM303.199 0V151.599H151.599V303.198H0V0H303.199Z" fill="url(#paint0_linear_3326_140105)"/>
<defs>
<linearGradient id="paint0_linear_3326_140105" x1="303.198" y1="-240.032" x2="0.000494291" y2="227.399" gradientUnits="userSpaceOnUse">
<stop stop-color="#F9F9F9"/>
<stop offset="1" stop-color="#7090FF"/>
</linearGradient>
</defs>
</svg>
